<?xml version="1.0" standalone="no"?>
<!DOCTYPE svg PUBLIC "-//W3C//DTD SVG 1.1//EN" "http://www.w3.org/Graphics/SVG/1.1/DTD/svg11.dtd" >
<svg xmlns="http://www.w3.org/2000/svg">
<metadata>
Created by FontForge 20120731 at Fri Jun 23 14:32:24 2017
 By admin
</metadata>
<defs>
<font id="iconfont" horiz-adv-x="1024" >
  <font-face 
    font-family="iconfont"
    font-weight="500"
    font-stretch="normal"
    units-per-em="1024"
    panose-1="2 0 6 3 0 0 0 0 0 0"
    ascent="896"
    descent="-128"
    x-height="792"
    bbox="0 -128.125 2745 896"
    underline-thickness="0"
    underline-position="0"
    unicode-range="U+0078-E66C"
  />
<missing-glyph 
 />
    <glyph glyph-name=".notdef" 
 />
    <glyph glyph-name=".notdef" 
 />
    <glyph glyph-name=".null" horiz-adv-x="0" 
 />
    <glyph glyph-name="nonmarkingreturn" horiz-adv-x="341" 
 />
    <glyph glyph-name="x" unicode="x" horiz-adv-x="1001" 
d="M281 543q-27 -1 -53 -1h-83q-18 0 -36.5 -6t-32.5 -18.5t-23 -32t-9 -45.5v-76h912v41q0 16 -0.5 30t-0.5 18q0 13 -5 29t-17 29.5t-31.5 22.5t-49.5 9h-133v-97h-438v97zM955 310v-52q0 -23 0.5 -52t0.5 -58t-10.5 -47.5t-26 -30t-33 -16t-31.5 -4.5q-14 -1 -29.5 -0.5
t-29.5 0.5h-32l-45 128h-439l-44 -128h-29h-34q-20 0 -45 1q-25 0 -41 9.5t-25.5 23t-13.5 29.5t-4 30v167h911zM163 247q-12 0 -21 -8.5t-9 -21.5t9 -21.5t21 -8.5q13 0 22 8.5t9 21.5t-9 21.5t-22 8.5zM316 123q-8 -26 -14 -48q-5 -19 -10.5 -37t-7.5 -25t-3 -15t1 -14.5
t9.5 -10.5t21.5 -4h37h67h81h80h64h36q23 0 34 12t2 38q-5 13 -9.5 30.5t-9.5 34.5q-5 19 -11 39h-368zM336 498v228q0 11 2.5 23t10 21.5t20.5 15.5t34 6h188q31 0 51.5 -14.5t20.5 -52.5v-227h-327z" />
    <glyph glyph-name="logo" unicode="&#xe626;" horiz-adv-x="6144" 
d="M2256 886h19v-8h-19v8zM2275 886h14v-19h-14v19zM2269 882h11v-15h-11v15zM2283 886h25v-19h-25v19zM2251 890h33v-23h-33v23zM2280 883h11v-10h-11v10zM2630 395h-43l-2 -5h43zM2626 374h-13l2 -7v-0.5t-1 -0.5h-19l7 12q17 -1 30.5 3t18.5 8l5 4l1 -3l6 17l-19 -8l4 -1
q-9 -7 -26 -11.5t-30 -5.5h-13q6 -1 11 -2v0l-10 -18h44q2 0 3.5 1t0.5 2zM2642 383l-7 -22h11l9 29q-8 -5 -13 -7zM2668 369q5 15 7 26h-11l-9 -28q-1 -3 1.5 -4.5t7.5 -1.5h23l1 5h-17q-4 0 -3 3zM2674 383l-1 -4l19 5l1 5zM2701 395l-9 -34h9l1 5h5l3 3v-3h10l3 4v-4h5
l-1 -1q0 -1 -1 -1h-3l-1 -3h8q6 0 7 4l8 30h-44v0zM2703 368l5 20l1 -10zM2715 367v11l6 11l1 -11zM2728 368v10l5 10zM2734 390h-5l-2 -4v4h-11l-2 -4v4h-5l1 2h25z" />
    <glyph glyph-name="iconfont-share" unicode="&#xe63d;" 
d="M788 557q-70 0 -119.5 50t-49.5 120t49.5 119.5t119.5 49.5t120 -49.5t50 -119.5t-50 -120t-120 -50zM790 -126q-70 0 -120 49.5t-50 119.5t50 119.5t120 49.5t119.5 -49.5t49.5 -119.5t-49.5 -119.5t-119.5 -49.5zM234 217q-70 0 -120 49.5t-50 119.5t50 120t120 50
t119.5 -50t49.5 -120t-49.5 -119.5t-119.5 -49.5zM323 481l335 212l44 -70l-335 -213zM326 298l47 69l327 -225l-47 -69z" />
    <glyph glyph-name="iconfont-heart" unicode="&#xe63e;" 
d="M510.5 4q-23.5 0 -40.5 15l-302 256q0 1 -1.5 2t-2.5 2l-21 21q-81 81 -81 195t81 195t196 81q96 0 172 -60q75 60 172 60q114 0 195 -81t81 -195t-81 -195l-21 -22l-4 -3l-301 -257q-18 -14 -41.5 -14zM797 337zM223 338z" />
    <glyph glyph-name="iconfont-map" unicode="&#xe63f;" horiz-adv-x="9907" 
d="M1153 241h59v-60h-59v60zM1157 237h52v-52h-52v52zM1149 231h50v-43h-50v43zM1160 235h55v-51h-55v51zM1159 236h57v-53h-57v53zM1167 236h20v-17h-20v17zM1150 238h22v-47h-22v47zM1149 239h24v-49h-24v49zM1171 226h34v-33h-34v33zM1170 227h36v-35h-36v35z" />
    <glyph glyph-name="iconfont-star" unicode="&#xe640;" 
d="M762 -42q-10 0 -19 5l-233 113l-233 -113q-22 -12 -42 3t-17 40l36 257l-180 187q-17 18 -9 42q7 23 32 28l255 45l122 229q12 22 36.5 22t37.5 -22l121 -229l255 -45q25 -4 33 -28t-10 -42l-180 -187l36 -257q4 -25 -16 -40q-12 -8 -25 -8zM510 164q10 0 19 -4l180 -88
l-28 200q-3 20 11 34l140 146l-198 34q-20 4 -30 22l-94 178l-94 -178q-10 -18 -29 -22l-199 -34l140 -146q14 -15 11 -34l-28 -200l181 88q10 4 18 4z" />
    <glyph glyph-name="iconfont-signout" unicode="&#xe641;" 
d="M916 157q-17 0 -29 -12.5t-12 -29.5q0 -9 -7 -15.5t-16 -6.5h-683q-9 0 -16 6.5t-7 15.5v544q0 9 7 16t16 7h683q9 0 16 -7t7 -16q0 -17 12 -29t29 -12t29.5 12t12.5 29q0 44 -31 75t-75 31h-683q-44 0 -75 -31t-31 -75v-544q0 -43 31 -74t75 -31h683q44 0 74.5 30.5
t30.5 74.5q1 17 -11.5 29.5t-29.5 12.5zM765 234q12 -12 29 -12t30 12l120 121q16 13 16 32.5t-16 32.5l-120 120q-13 12 -30 12t-29 -12t-12 -29t12 -30l52 -52h-305q-17 0 -29.5 -12.5t-12.5 -29.5t12.5 -29t29.5 -12h305l-52 -53q-12 -12 -12 -29.5t12 -29.5z" />
    <glyph glyph-name="iconfont-top" unicode="&#xe642;" 
d="M481 519l-205 -205q-12 -12 -12 -29t12 -29.5t29.5 -12.5t29.5 12l175 176l176 -176q12 -12 29 -12t29.5 12.5t12.5 29.5t-12 29l-205 205q-12 12 -29.5 12t-29.5 -12z" />
    <glyph glyph-name="iconfont-shop" unicode="&#xe643;" 
d="M917 509h-813q-21 0 -33 17q-13 16 -7 37l63 207q4 13 15 21t25 8h687q14 0 25 -8t14 -21l63 -207q7 -21 -6 -37q-12 -17 -33 -17zM160 592h701l-38 124h-625zM239.5 334q-73.5 0 -125.5 52t-52 125q0 17 12.5 29t29.5 12t29.5 -12t12.5 -29q0 -39 27.5 -66.5t66 -27.5
t66 27.5t27.5 66.5q0 17 12 29t29.5 12t29.5 -12t12 -29q1 -73 -51 -125t-125.5 -52zM510.5 334q-73.5 0 -125.5 52t-52 125q0 17 12.5 29t29.5 12t29.5 -12t12.5 -29q0 -39 27.5 -66.5t66 -27.5t66 27.5t27.5 66.5q0 17 12 29t29.5 12t29.5 -12t12 -29q0 -73 -51.5 -125
t-125 -52zM781.5 334q-73.5 0 -125.5 52t-52 125q0 17 12.5 29t29.5 12t29.5 -12t12.5 -29q0 -39 27.5 -66.5t66 -27.5t66 27.5t27.5 66.5q0 17 12.5 29t29.5 12t29 -12t12 -29q0 -73 -51.5 -125t-125 -52zM821 -28h-621q-44 0 -75 31t-31 74v181q0 18 12.5 30t29.5 12
t29.5 -12t12.5 -30v-181q0 -9 6.5 -15.5t15.5 -6.5h621q9 0 15.5 6.5t6.5 15.5v183q0 17 12.5 29t29.5 12t29 -12t12 -29v-183q0 -43 -31 -74t-74 -31v0z" />
    <glyph glyph-name="iconfont-user" unicode="&#xe644;" 
d="M510.5 276q-115.5 0 -197 81.5t-81.5 197t81.5 197t197 81.5t197 -81.5t81.5 -197t-81.5 -197t-197 -81.5zM510.5 750q-80.5 0 -138 -57.5t-57.5 -138t57.5 -138t138 -57.5t138 57.5t57.5 138t-57.5 138t-138 57.5zM110 -63q-2 0 -7 1q-17 3 -27 17t-7 31q13 77 52.5 145
t98.5 119q61 52 136 79t154 27q163 0 288 -104t153 -265q3 -17 -7 -31t-27 -17t-31 7t-17 26q-23 131 -124.5 216t-234.5 85t-234.5 -85t-124.5 -216q-3 -15 -14.5 -25t-26.5 -10z" />
    <glyph glyph-name="money" unicode="&#xe645;" 
d="M789 -62h-557q-70 0 -120 49.5t-50 119.5v557q0 70 50 120t120 50h557q70 0 119.5 -50t49.5 -120v-557q0 -70 -49.5 -119.5t-119.5 -49.5zM232 750q-36 0 -61 -25t-25 -61v-557q0 -36 25 -61t61 -25h557q36 0 61 25t25 61v557q0 36 -25 61t-61 25h-557zM702 437h-384
q-17 0 -29 12t-12 29.5t12 29.5t29 12h384q18 0 30 -12t12 -29.5t-12 -29.5t-30 -12zM702 266h-384q-17 0 -29 12t-12 29.5t12 29.5t29 12h384q18 0 30 -12t12 -29.5t-12 -29.5t-30 -12zM510.5 103q-17.5 0 -29.5 12t-12 29v309l-145 145q-12 12 -12 29t12.5 29.5t29.5 12.5
t29 -12l169 -169v-344q0 -17 -12 -29t-29.5 -12zM510 431q-17 0 -29 12.5t-12 29.5t12 29l154 155q12 12 29.5 12t29.5 -12.5t12 -29.5t-12 -29l-154 -154q-12 -13 -30 -13z" />
    <glyph glyph-name="iconfont-topic" unicode="&#xe646;" 
d="M789 -62h-557q-70 0 -120 49.5t-50 119.5v557q0 70 50 120t120 50h557q70 0 119.5 -50t49.5 -120v-557q0 -70 -49.5 -119.5t-119.5 -49.5zM232 750q-36 0 -61 -25t-25 -61v-557q0 -36 25 -61t61 -25h557q36 0 61 25t25 61v557q0 36 -25 61t-61 25h-557zM510.5 231
q-17.5 0 -29.5 12t-12 30v127q0 17 12 29t29 12h107v107h-255q-17 0 -29.5 12t-12.5 29.5t12.5 29.5t29.5 12h297q17 0 29 -12t12 -30v-189q0 -18 -12 -30t-29 -12h-107v-85q0 -18 -12 -30t-29.5 -12zM510 137zM469 137q0 -17 12 -29.5t29.5 -12.5t29.5 12.5t12 29.5
t-12 29.5t-29.5 12.5t-29.5 -12.5t-12 -29.5z" />
    <glyph glyph-name="shoping-cart" unicode="&#xe647;" 
d="M200 -62q-57 0 -97.5 40t-40.5 97t40.5 97.5t97.5 40.5t97.5 -40.5t40.5 -97.5t-40.5 -97t-97.5 -40zM200 130q-23 0 -38.5 -16t-15.5 -38.5t15.5 -38.5t38.5 -16t38.5 16t15.5 38.5t-15.5 38.5t-38.5 16zM821 -62q-57 0 -97.5 40t-40.5 97t40.5 97.5t97.5 40.5t97 -40.5
t40 -97.5t-40 -97t-97 -40zM820.5 130q-22.5 0 -38.5 -16t-16 -38.5t16 -38.5t38.5 -16t38.5 16t16 38.5t-16 38.5t-38.5 16zM829 212h-625q-17 0 -29.5 12t-12.5 29.5t12.5 29.5t29.5 12h583v497q0 17 12.5 29.5t29.5 12.5h153q18 0 30 -12.5t12 -29.5t-12 -29.5t-30 -12.5
h-112v-497q0 -17 -12 -29t-29 -12zM620 362h-352q-44 0 -75 31t-31 75v128q0 44 31 74.5t75 30.5h352q44 0 74.5 -30.5t30.5 -74.5v-128q0 -44 -30.5 -75t-74.5 -31zM268 618q-9 0 -16 -6.5t-7 -15.5v-128q0 -9 7 -16t16 -7h352q9 0 15.5 7t6.5 16v128q0 9 -6.5 15.5
t-15.5 6.5h-352z" />
    <glyph glyph-name="time" unicode="&#xe648;" 
d="M510 -62q-91 0 -173.5 35.5t-143 95.5t-96 143t-35.5 174t35.5 173.5t96 143t143 96t173.5 35.5t174 -35.5t143 -96t95.5 -143t35.5 -173.5t-35.5 -174t-95.5 -143t-143 -95.5t-174 -35.5zM510 750q-99 0 -183 -48.5t-132.5 -132.5t-48.5 -183t48.5 -183t132.5 -133
t183 -49t183 49t133 133t49 183t-49 183t-133 132.5t-183 48.5zM733 344h-264v299q0 17 12 29.5t29.5 12.5t29.5 -12.5t12 -29.5v-216h181q17 0 29 -12t12 -29.5t-12 -29.5t-29 -12z" />
    <glyph glyph-name="iconfont-bottom" unicode="&#xe64a;" 
d="M540 255l205 205q12 12 12 29.5t-12.5 29.5t-29.5 12t-29 -12l-176 -175l-175 175q-12 12 -29.5 12t-29.5 -12t-12 -29.5t12 -29.5l205 -205q12 -12 29.5 -12t29.5 12z" />
    <glyph glyph-name="truck" unicode="&#xe64b;" 
d="M578 46q-18 0 -30 12.5t-12 29.5q0 16 11 28t27 14v620h-428v-624q0 -17 -12.5 -29t-29.5 -12t-29.5 12t-12.5 29v628q0 33 23.5 56.5t56.5 23.5h436q33 0 56.5 -23.5t23.5 -56.5v-628q0 -33 -23.5 -56.5t-56.5 -23.5zM620 44q-17 0 -29 12t-12 30v435q0 33 23 56.5
t57 23.5h220q33 0 56.5 -23.5t23.5 -56.5v-397q0 -17 -12.5 -29t-29.5 -12t-29 12t-12 29v394h-214v-432q0 -17 -12.5 -29.5t-29.5 -12.5zM332 -62q-71 0 -121 50t-50 121t50 121t121 50t121 -50t50 -121t-50 -121t-121 -50zM332 197q-36 0 -62 -26t-26 -62.5t26 -62
t62.5 -25.5t62 25.5t25.5 62t-26 62.5t-62 26zM713.5 -62q-55.5 0 -95 39.5t-39.5 95t39.5 95t95 39.5t95 -39.5t39.5 -95t-39.5 -95t-95 -39.5zM713.5 124q-21.5 0 -36.5 -15t-15 -36.5t15 -36.5t36.5 -15t36.5 15t15 36.5t-15 36.5t-36.5 15zM620 323h297v-83h-297v83z
" />
    <glyph glyph-name="iconfont-arrow" unicode="&#xe64c;" 
d="M737 386l-453 261v-523z" />
    <glyph glyph-name="iconfont-chat" unicode="&#xe64d;" 
d="M510.5 -21q-31.5 0 -53.5 22l-78 78q-134 33 -221 123q-96 99 -96 226q0 74 35 141.5t100 119.5q131 104 313.5 104t313.5 -104q65 -52 99.5 -119.5t34.5 -141.5q0 -126 -95 -226q-86 -90 -220 -123l-78 -77q-23 -23 -54.5 -23zM510 709q-99 0 -183 -37.5t-132.5 -102.5
t-48.5 -141q0 -94 73.5 -169.5t190.5 -101.5q11 -3 20 -11l81 -81l81 81q9 8 20 11q116 26 189.5 101.5t73.5 168.5q0 77 -49 142t-133 102.5t-183 37.5zM322 418zM274 417.5q0 -19.5 14 -33.5t33.5 -14t34 14t14.5 33.5t-14.5 34t-34 14.5t-33.5 -14.5t-14 -34zM510 418z
M462 417.5q0 -19.5 14.5 -33.5t34 -14t33.5 14t14 33.5t-14 34t-33.5 14.5t-34 -14.5t-14.5 -34zM699 418zM651 417.5q0 -19.5 14 -33.5t34 -14t34 14t14 33.5t-14 34t-34 14.5t-34 -14.5t-14 -34z" />
    <glyph glyph-name="iconfont-code" unicode="&#xe64e;" 
d="M104 509q-17 0 -29.5 12.5t-12.5 29.5v199q0 35 25 60t60 25h200q17 0 29.5 -12t12.5 -29.5t-12.5 -29.5t-29.5 -12h-200q-1 0 -1 -2v-199q0 -17 -12.5 -29.5t-29.5 -12.5zM917 509q-17 0 -29.5 12t-12.5 29v200q0 2 -1 2h-200q-17 0 -29.5 12t-12.5 29.5t12.5 29.5
t29.5 12h200q35 0 59.5 -25t24.5 -60v-200q0 -17 -12 -29t-29 -12zM917 265q17 0 29 -12t12 -30v-199q0 -35 -24.5 -60t-59.5 -25h-200q-18 0 -30 12t-12 29.5t12 29.5t30 12h200q1 0 1 2v199q0 18 12.5 30t29.5 12zM104 266q17 0 29.5 -12.5t12.5 -29.5v-200q0 -2 1 -2h200
q17 0 29 -12t12 -29t-12 -29.5t-29 -12.5h-200q-35 0 -60 25t-25 60v200q0 17 12.5 29.5t29.5 12.5zM981 344h-939q-18 0 -30 12t-12 29.5t12 29.5t30 12h939q18 0 30 -12t12 -29.5t-12 -29.5t-30 -12z" />
    <glyph glyph-name="iconfont-correct" unicode="&#xe64f;" horiz-adv-x="1025" 
d="M320 12q-18 0 -30 13l-278 278q-12 12 -12 29t12 29.5t29.5 12.5t29.5 -12l249 -249l633 633q12 12 29.5 12t29.5 -12t12 -29t-12 -30l-663 -662q-12 -13 -29 -13z" />
    <glyph glyph-name="iconfont-error" unicode="&#xe650;" 
d="M917 -61q-17 0 -30 12l-812 813q-13 12 -13 29.5t12.5 29.5t29.5 12t29 -12l813 -813q12 -12 12 -29t-12 -29.5t-29 -12.5zM104 -61q-17 0 -29.5 12.5t-12.5 29.5t13 29l812 813q13 12 30 12t29 -12t12 -29.5t-12 -29.5l-813 -813q-12 -12 -29 -12z" />
    <glyph glyph-name="iconfont-eye" unicode="&#xe651;" 
d="M510.5 91q-180.5 0 -310.5 81q-66 42 -102 97t-36 117q0 61 36 116.5t102 96.5q130 81 310.5 81t309.5 -81q67 -42 102.5 -97t35.5 -116q0 -62 -35.5 -117t-102.5 -97q-129 -81 -309.5 -81zM510.5 603q-158.5 0 -269.5 -69q-102 -64 -102 -148q0 -85 102 -149
q111 -69 269 -69q159 0 270 69q102 64 102 149t-102 148q-111 69 -269.5 69zM510.5 166q-90.5 0 -155 64.5t-64.5 155t64.5 155t155 64.5t155 -64.5t64.5 -155t-64.5 -155t-155 -64.5zM510.5 528q-58.5 0 -100.5 -42t-42 -100.5t42 -100.5t100.5 -42t100.5 42t42 100.5
t-42 100.5t-100.5 42z" />
    <glyph glyph-name="iconfont-edit" unicode="&#xe652;" 
d="M840 -61h-659q-31 0 -53 22t-22 53v743q0 31 22 53t53 22h424q15 0 25.5 -11t10.5 -26t-10.5 -26t-25.5 -11h-424q-2 0 -2 -1v-743q0 -1 2 -1h659q1 0 1 1v482q0 16 11 26.5t26.5 10.5t26 -10.5t10.5 -26.5v-482q0 -31 -22 -53t-53 -22zM306 534h247q18 0 30 12.5
t12 29.5t-12 29t-30 12h-247q-18 0 -30 -12t-12 -29t12 -29.5t30 -12.5zM715 427h-408q-17 0 -29 -12t-12 -29.5t12 -29.5t29 -12h408q17 0 29.5 12t12.5 29.5t-12.5 29.5t-29.5 12zM700 536q-15 0 -26 10q-10 11 -10 26.5t10 26.5l287 286q11 11 26 11t26 -11t11 -26
t-11 -26l-287 -287q-11 -10 -26 -10z" />
    <glyph glyph-name="iconfont-eye-hide" unicode="&#xe653;" 
d="M510.5 91q-180.5 0 -310.5 81q-66 42 -102 97t-36 117q0 61 36 116.5t102 96.5q130 81 310.5 81t309.5 -81q67 -42 102.5 -97t35.5 -116q0 -62 -35.5 -117t-102.5 -97q-129 -81 -309.5 -81zM510.5 603q-158.5 0 -269.5 -69q-102 -64 -102 -148q0 -85 102 -149
q111 -69 269 -69q159 0 270 69q102 64 102 149t-102 148q-111 69 -269.5 69zM841.5 16q-15.5 0 -27.5 11l-662 663q-11 11 -11 27t11 27t27 11t27 -11l663 -662q11 -12 11 -28t-11 -27q-12 -11 -27.5 -11z" />
    <glyph glyph-name="iconfont-file" unicode="&#xe654;" 
d="M814 835h-608q-43 0 -74 -31t-31 -74v-685q0 -44 31 -75t74 -31h608q44 0 75 31t31 75v685q0 43 -31 74t-75 31zM837 45q0 -9 -6.5 -16t-16.5 -7h-608q-9 0 -15.5 7t-6.5 16v685q0 9 6.5 15.5t15.5 6.5h608q10 0 16.5 -6.5t6.5 -15.5v-685zM306 536h408q17 0 29 12
t12 29.5t-12 29.5t-29 12h-408q-18 0 -30 -12t-12 -29.5t12 -29.5t30 -12zM715 429h-408q-17 0 -29 -12.5t-12 -29.5t12 -29t29 -12h408q17 0 29.5 12t12.5 29t-12.5 29.5t-29.5 12.5zM511 238h-204q-17 0 -29 -12t-12 -29t12 -29.5t29 -12.5h204q18 0 30 12.5t12 29.5
t-12.5 29t-29.5 12z" />
    <glyph glyph-name="iconfont-heart1" unicode="&#xe655;" 
d="M510.5 4q-23.5 0 -40.5 15l-302 256q0 1 -1.5 2t-2.5 2l-21 21q-81 81 -81 195t81 195t196 81q96 0 172 -60q75 60 172 60q114 0 195 -81t81 -195t-81 -195l-21 -22l-4 -3l-301 -257q-18 -14 -41.5 -14zM223 338l287 -245l288 245l21 21q56 56 56 136t-56 136
q-56 57 -136 57t-137 -57l-6 -6q-12 -12 -29.5 -12t-29.5 12l-6 6q-57 57 -137 57q-79 0 -136 -57q-56 -56 -56 -136q0 -79 56 -136zM797 337zM223 338z" />
    <glyph glyph-name="iconfont-left" unicode="&#xe656;" 
d="M379 358l204 -205q13 -12 30 -12t29 12t12 29.5t-12 29.5l-175 175l175 176q12 12 12 29t-12 29.5t-29 12.5t-30 -13l-204 -204q-13 -13 -13 -30t13 -29z" />
    <glyph glyph-name="iconfont-female" unicode="&#xe657;" 
d="M578 412q-17 0 -29 12.5t-12 29.5t12 30l340 339q12 12 29 12t29.5 -12t12.5 -29.5t-12 -29.5l-340 -339q-12 -13 -30 -13zM537 794q0 17 12 29t29 12t30 -12l339 -339q12 -13 12 -30t-12 -29.5t-29 -12.5t-30 13l-339 339q-12 12 -12 30zM382 -61q-132 0 -225 93
q-94 94 -94 226t93.5 225.5t225.5 93.5t226 -94q92 -92 93 -225q0 -86 -42.5 -159.5t-116 -116.5t-160.5 -43v0zM383 494q-98 0 -167 -69t-69 -167t68.5 -166.5t166.5 -68.5t167 69t69 167q0 97 -69 166t-166 69z" />
    <glyph glyph-name="iconfont-id" unicode="&#xe658;" 
d="M854 718q-17 0 -29 -12t-12 -29t12 -29.5t29 -12.5q10 0 16.5 -6.5t6.5 -15.5v-448q0 -9 -6.5 -16t-16.5 -7h-684q-10 0 -16.5 7t-6.5 16v448q0 9 6.5 15.5t16.5 6.5q17 0 29 12.5t12 29.5t-12 29t-29 12q-44 0 -75 -31t-31 -74v-448q0 -44 31 -75t75 -31h684q44 0 75 31
t31 75v448q0 43 -31 74t-75 31zM413 635h195q17 0 29.5 12.5t12.5 29.5t-12.5 29t-29.5 12h-195q-17 0 -29.5 -12t-12.5 -29t12.5 -29.5t29.5 -12.5zM294.5 579q17.5 0 29.5 12.5t12 29.5v115q0 17 -12 29.5t-29.5 12.5t-29.5 -12.5t-12 -29.5v-115q0 -17 12 -29.5
t29.5 -12.5zM726.5 579q17.5 0 29.5 12.5t12 29.5v115q0 17 -12 29.5t-29.5 12.5t-29.5 -12.5t-12 -29.5v-115q0 -17 12 -29.5t29.5 -12.5zM282 443h460q18 0 30 12.5t12 29.5t-12 29t-30 12h-460q-18 0 -30 -12t-12 -29t12 -29.5t30 -12.5zM282 251h326q17 0 29.5 12.5
t12.5 29.5t-12.5 29t-29.5 12h-326q-18 0 -30 -12t-12 -29t12 -29.5t30 -12.5z" />
    <glyph glyph-name="iconfont-less" unicode="&#xe659;" 
d="M766 344h-512q-17 0 -29 12t-12 29.5t12 29.5t29 12h512q18 0 30 -12t12 -29.5t-12 -29.5t-30 -12z" />
    <glyph glyph-name="iconfont-male" unicode="&#xe65a;" 
d="M578 412q-17 0 -29 12.5t-12 29.5t12 30l310 309q12 12 29 12t29.5 -12t12.5 -29.5t-13 -29.5l-309 -309q-12 -13 -30 -13zM918 752h-438q-17 0 -29 12t-12 29.5t12 29.5t29 12h438q17 0 29.5 -12t12.5 -29.5t-12.5 -29.5t-29.5 -12zM918 314q-17 0 -29.5 12.5
t-12.5 29.5v438q0 17 12.5 29t29.5 12t29.5 -12t12.5 -29v-438q0 -17 -12.5 -29.5t-29.5 -12.5zM382 -61q-132 0 -225 93q-94 94 -94 226t93.5 225.5t225.5 93.5t226 -94q92 -92 93 -225q0 -86 -42.5 -159.5t-116 -116.5t-160.5 -43v0zM383 494q-98 0 -167 -69t-69 -167
t68.5 -166.5t166.5 -68.5t167 69t69 167q0 97 -69 166t-166 69z" />
    <glyph glyph-name="iconfont-more" unicode="&#xe65b;" 
d="M510 387zM469 387q0 -17 12 -29t29.5 -12t29.5 12t12 29t-12 29.5t-29.5 12.5t-29.5 -12.5t-12 -29.5zM675 387zM634 387q0 -17 12 -29t29 -12t29.5 12t12.5 29t-12.5 29.5t-29.5 12.5t-29 -12.5t-12 -29.5zM346 387zM304 387q0 -17 12 -29t29.5 -12t29.5 12t12 29
t-12 29.5t-29.5 12.5t-29.5 -12.5t-12 -29.5z" />
    <glyph glyph-name="iconfont-menu" unicode="&#xe65c;" 
d="M918 658h-812q-18 0 -30 12t-12 29t12 29.5t30 12.5h812q18 0 30 -12.5t12 -29.5t-12 -29t-30 -12zM710 344h-604q-18 0 -30 12t-12 29.5t12 29.5t30 12h604q18 0 30 -12t12 -29.5t-12 -29.5t-30 -12zM918 30h-812q-18 0 -30 12.5t-12 29.5t12 29.5t30 12.5h812
q18 0 30 -12.5t12 -29.5t-12 -29.5t-30 -12.5z" />
    <glyph glyph-name="iconfont-plus" unicode="&#xe65d;" 
d="M766 344h-512q-17 0 -29 12t-12 29.5t12 29.5t29 12h512q18 0 30 -12t12 -29.5t-12 -29.5t-30 -12zM510.5 88q-17.5 0 -29.5 12t-12 30v512q0 17 12 29t29.5 12t29.5 -12t12 -29v-512q0 -18 -12 -30t-29.5 -12z" />
    <glyph glyph-name="iconfont-right" unicode="&#xe65e;" 
d="M642 417l-205 204q-12 13 -29 13t-29.5 -12.5t-12.5 -29.5t13 -29l175 -176l-175 -175q-13 -12 -13 -29.5t12.5 -29.5t29.5 -12t29 12l205 205q12 12 12 29t-12 30z" />
    <glyph glyph-name="iconfont-position" unicode="&#xe65f;" 
d="M559 -63q-14 0 -25 9t-15 23l-85 342l-342 85q-13 3 -22 13t-10 24q-1 13 6 24.5t19 16.5l813 355q26 12 46 -8t9 -46l-240 -548q-7 -16 -23 -22.5t-31.5 0.5t-22 23t0.5 32l197 451l-603 -264l247 -61q25 -7 31 -31l91 -367q4 -16 -5 -31t-26 -19q-4 -1 -10 -1z" />
    <glyph glyph-name="iconfont-rq-code" unicode="&#xe660;" 
d="M360 432h-192q-44 0 -75 31t-31 75v192q0 43 31 74t75 31h192q44 0 75 -31t31 -74v-192q0 -44 -31 -75t-75 -31zM168 752q-9 0 -15.5 -6.5t-6.5 -15.5v-192q0 -10 6.5 -16.5t15.5 -6.5h192q9 0 15.5 6.5t6.5 16.5v192q0 9 -6.5 15.5t-15.5 6.5h-192zM280 579h-32
q-16 0 -27 11.5t-11 27.5v32q0 15 11 26.5t27 11.5h32q16 0 27 -11.5t11 -26.5v-32q0 -16 -11 -27.5t-27 -11.5zM360 -61h-192q-44 0 -75 31t-31 75v192q0 43 31 74t75 31h192q44 0 75 -31t31 -74v-192q0 -44 -31 -75t-75 -31zM168 259q-9 0 -15.5 -6.5t-6.5 -15.5v-192
q0 -9 6.5 -16t15.5 -7h192q9 0 15.5 7t6.5 16v192q0 9 -6.5 15.5t-15.5 6.5h-192zM280 86h-32q-16 0 -27 11.5t-11 27.5v32q0 16 11 27t27 11h32q16 0 27 -11t11 -27v-32q0 -16 -11 -27.5t-27 -11.5zM853 432h-192q-44 0 -75 31t-31 75v192q0 43 31 74t75 31h192
q43 0 74 -31t31 -74v-192q0 -44 -31 -75t-74 -31zM661 752q-9 0 -16 -6.5t-7 -15.5v-192q0 -10 7 -16.5t16 -6.5h192q9 0 15.5 6.5t6.5 16.5v192q0 9 -6.5 15.5t-15.5 6.5h-192zM773 579h-32q-16 0 -27.5 11.5t-11.5 27.5v32q0 15 11.5 26.5t27.5 11.5h32q16 0 27 -11.5
t11 -26.5v-32q0 -16 -11 -27.5t-27 -11.5zM597 -61q-17 0 -29.5 12.5t-12.5 29.5v166q0 17 12.5 29.5t29.5 12.5t29 -12.5t12 -29.5v-166q0 -17 -12 -29.5t-29 -12.5zM597 239q-17 0 -29.5 12t-12.5 30v20q0 17 12.5 29t29.5 12t29 -12t12 -29v-20q0 -18 -12 -30t-29 -12z
M917 93q-17 0 -29.5 12t-12.5 29v167q0 17 12.5 29t29.5 12t29 -12t12 -29v-167q0 -17 -12 -29t-29 -12zM917 -61q-17 0 -29.5 12.5t-12.5 29.5v20q0 17 12.5 29.5t29.5 12.5t29 -12.5t12 -29.5v-20q0 -17 -12 -29.5t-29 -12.5zM755 -61q-17 0 -29 12.5t-12 29.5v93
q0 17 12 29t29 12t29.5 -12t12.5 -29v-93q0 -17 -12.5 -29.5t-29.5 -12.5zM755 166q-17 0 -29 12t-12 29v94q0 17 12 29t29 12t29.5 -12t12.5 -29v-94q0 -17 -12.5 -29t-29.5 -12z" />
    <glyph glyph-name="iconfont-service" unicode="&#xe661;" 
d="M510 135q-125 0 -213.5 89t-88.5 214t89 213.5t213.5 88.5t213.5 -89t89 -213q0 -126 -89 -214.5t-214 -88.5zM510.5 657q-90.5 0 -155 -64.5t-64.5 -155t64.5 -154.5t155 -64t155 64t64.5 154.5t-64.5 155t-155 64.5zM946.5 271q-17.5 0 -29.5 12t-12 29v125h-18
q-17 0 -29 12t-12 29q0 91 -45 168t-122 122t-167.5 45t-167.5 -45t-122 -122t-45 -167q0 -18 -12 -30t-29 -12h-20v-124q0 -18 -12 -30t-29.5 -12t-29.5 12t-12 30v166q0 17 12 29t29 12h22q11 104 68.5 190.5t149 136t198 49.5t198 -50t149.5 -136t68 -190h20q17 0 29 -12
t12 -29v-166q0 -18 -12 -30t-29.5 -12zM971 -126q-26 0 -38 23q-38 77 -108 133q-13 10 -15 27t8 31q11 13 28 15t31 -8q85 -68 131 -161q8 -16 2.5 -32t-21.5 -24q-9 -4 -18 -4zM50 -126q-10 0 -18 4q-16 7 -21.5 23.5t2.5 31.5q64 130 198 206t299 76q50 0 96 -8
q27 -3 51 -9q17 -4 26 -18.5t5 -31.5t-18.5 -26t-31.5 -5q-18 4 -44 8q-43 6 -84 6q-142 0 -255.5 -63t-167.5 -171q-11 -23 -37 -23zM600 9q-17 0 -29 12t-12 29.5t12 29.5t29 12q84 0 143 59t59 142q0 18 12 30t29.5 12t29.5 -12t12 -30q0 -117 -83.5 -200.5t-201.5 -83.5
z" />
    <glyph glyph-name="iconfont-search" unicode="&#xe662;" 
d="M946 10l-181 182q88 108 88 248q0 107 -53 198t-144 144t-198.5 53t-198.5 -53t-144 -144t-53 -198t53 -198t144 -144t199 -53q139 0 248 88l181 -182q13 -12 30 -12t29 12.5t12 29.5t-12 29zM457.5 128q-129.5 0 -220.5 91.5t-91 220.5t91 220.5t220.5 91.5t221 -91.5
t91.5 -220.5t-91.5 -220.5t-221 -91.5zM458 678q-59 0 -110 -27t-84 -76q-10 -14 -6.5 -31t17.5 -26q11 -7 24 -7q22 0 34 18q21 31 54 49t71 18q17 0 29.5 12t12.5 29t-12.5 29t-29.5 12zM265 487q-16 0 -28.5 -12t-12.5 -30q0 -6 1 -11q4 -15 15.5 -23.5t25.5 -8.5
q15 0 27.5 11t13.5 30q1 8 -2 14q-4 14 -15 22.5t-25 7.5z" />
    <glyph glyph-name="iconfont-share1" unicode="&#xe663;" 
d="M788 557q-70 0 -119.5 50t-49.5 120t49.5 119.5t119.5 49.5t120 -49.5t50 -119.5t-50 -120t-120 -50zM788.5 813q-35.5 0 -61 -25.5t-25.5 -61t25.5 -61t61 -25.5t61 25.5t25.5 61t-25.5 61t-61 25.5zM790 -126q-70 0 -120 49.5t-50 119.5t50 119.5t120 49.5t119.5 -49.5
t49.5 -119.5t-49.5 -119.5t-119.5 -49.5zM789.5 129q-35.5 0 -61 -25t-25.5 -61t25.5 -61t61 -25t61 25t25.5 61t-25.5 61t-61 25zM234 217q-70 0 -120 49.5t-50 119.5t50 120t120 50t119.5 -50t49.5 -120t-49.5 -119.5t-119.5 -49.5zM233.5 473q-35.5 0 -61 -25.5
t-25.5 -61t25.5 -61t61 -25.5t61 25.5t25.5 61t-25.5 61t-61 25.5zM323 481l335 212l44 -70l-335 -213zM326 298l47 69l327 -225l-47 -69z" />
    <glyph glyph-name="iconfont-search1" unicode="&#xe664;" 
d="M485 3q-82 0 -159 31.5t-138 91.5q-59 60 -91 135.5t-33 158.5q0 84 30.5 159.5t88.5 133.5q79 78 185.5 105.5t213.5 -1.5t187.5 -109t109.5 -187t1.5 -214t-106.5 -185q-58 -59 -133 -89t-156 -30zM472 793q-73 0 -141 -27t-121 -80t-80.5 -121.5t-27 -144t29.5 -144.5
t83 -122q73 -73 170 -99.5t193.5 -2t168 96t96.5 168.5t-1.5 194t-99.5 170q-55 55 -125 83.5t-145 28.5zM924 -28q-16 -16 -39.5 -16t-40.5 16l-122 122q-1 2 0 3l77 76q1 2 2 0l123 -122q16 -16 16 -39t-16 -40zM884 -63q-31 0 -53 21l-122 123q-6 6 -6 14.5t6 14.5l77 77
q6 6 14.5 6t14.5 -6l122 -122q22 -22 22 -53q1 -31 -21 -53t-54 -22zM924 -28zM748 96l110 -110q11 -11 26 -11t26 11t11 26t-11 26l-110 110zM250 491q-4 0 -8 1q-7 4 -10 11t0 14q20 51 58 88q38 39 88 59q48 20 100 20t101 -20q51 -20 88 -58q5 -6 5 -14t-5.5 -13.5
t-13.5 -5.5t-14 6q-31 32 -75 50q-41 17 -86 17t-85 -17q-43 -17 -76 -50q-32 -31 -50 -75q-4 -13 -17 -13zM667.5 503.5q15.5 -15.5 37 -15.5t37 15.5t15.5 37.5t-15.5 37.5t-37 15.5t-37 -15.5t-15.5 -37.5t15.5 -37.5zM704.5 469q-29.5 0 -50.5 21t-21 51t21 51t50.5 21
t51 -21t21.5 -51t-21.5 -51t-51 -21zM681 564.5q-10 -9.5 -10 -23.5t10 -24t24 -10t23 10q10 10 10 24t-10 23q-10 10 -23.5 10t-23.5 -9.5zM479 151q-52 0 -101 20q-50 20 -88 58q-5 6 -5 14t5.5 13.5t13.5 5.5t14 -6q31 -32 75 -50q41 -17 85.5 -17t85.5 17q42 17 76 50
q32 32 50 75q3 8 10.5 11t15 0t10.5 -10.5t0 -14.5q-21 -51 -59 -88q-38 -38 -87 -59q-50 -19 -101 -19zM215.5 256.5q15.5 -15.5 37 -15.5t37 15.5t15.5 37.5t-15.5 37.5t-37 15.5t-37 -15.5t-15.5 -37.5t15.5 -37.5zM252.5 222q-29.5 0 -51 21t-21.5 51t21.5 51t51 21
t50.5 -21t21 -51t-21 -51t-50.5 -21zM229 317.5q-10 -9.5 -10 -23.5t10 -24t24 -10t23 10q10 10 10 24t-10 23.5t-23.5 9.5t-23.5 -9.5z" />
    <glyph glyph-name="iconfont-global" unicode="&#xe665;" 
d="M698 221h-368l182 344zM394 259h240l-122 225zM324.5 202.5q15.5 -15.5 37 -15.5t37 15.5t15.5 37.5t-15.5 37.5t-37 15.5t-37 -15.5t-15.5 -37.5t15.5 -37.5zM361.5 168q-29.5 0 -50.5 21t-21 51t21 51t51 21t50 -21q22 -21 22 -51t-22 -51q-21 -21 -50.5 -21z
M361.5 274q-13.5 0 -23.5 -10t-10 -24t10 -24t24 -10t23 10q10 10 10 24t-10 24t-23.5 10zM324 277zM628.5 202.5q15.5 -15.5 37 -15.5t37 15.5t15.5 37.5t-15.5 37.5t-37 15.5t-37 -15.5t-15.5 -37.5t15.5 -37.5zM665.5 168q-29.5 0 -50.5 21t-21 51t21 51t50.5 21t51 -21
t21.5 -51t-21.5 -51t-51 -21zM665.5 274q-14.5 0 -23.5 -10q-10 -10 -10 -24t10 -24t24 -10t23 10q10 10 10 24t-10 24q-9 10 -23.5 10zM628 277zM83 579q-8 0 -13.5 5.5t-5.5 13.5v215q0 8 5.5 13.5t13.5 5.5h215q8 0 13.5 -5.5t5.5 -13.5t-5.5 -13.5t-13.5 -5.5h-196v-196
q0 -8 -5.5 -13.5t-13.5 -5.5zM298 -64h-215q-8 0 -13.5 5.5t-5.5 13.5v215q0 8 5.5 13.5t13.5 5.5t13.5 -5.5t5.5 -13.5v-196h196q8 0 13.5 -5.5t5.5 -13.5t-5.5 -13.5t-13.5 -5.5zM941 -64h-215q-8 0 -13.5 5.5t-5.5 13.5t5.5 13.5t13.5 5.5h196v196q0 8 5.5 13.5t13.5 5.5
t13.5 -5.5t5.5 -13.5v-215q0 -8 -5.5 -13.5t-13.5 -5.5zM941 579q-8 0 -13.5 5.5t-5.5 13.5v196h-196q-8 0 -13.5 5.5t-5.5 13.5t5.5 13.5t13.5 5.5h215q8 0 13.5 -5.5t5.5 -13.5v-215q0 -8 -5.5 -13.5t-13.5 -5.5zM800 77h-576q-8 0 -13.5 5.5t-5.5 13.5v576q0 8 5.5 13.5
t13.5 5.5h576q8 0 13.5 -5.5t5.5 -13.5v-576q0 -8 -5.5 -13.5t-13.5 -5.5zM243 115h538v538h-538v-538zM474.5 487.5q15.5 -15.5 37.5 -15.5t37.5 15.5t15.5 37.5t-15.5 37.5t-37.5 15.5t-37.5 -15.5t-15.5 -37.5t15.5 -37.5zM512 453q-30 0 -51 21t-21 51t21 51t51 21
t51 -21t21 -51t-21 -51t-51 -21zM488 548.5q-10 -9.5 -10 -23.5t10 -24t24 -10t24 10t10 24t-10 23q-10 10 -24 10t-24 -9.5z" />
    <glyph glyph-name="iconfont-refresh" unicode="&#xe666;" 
d="M209 61q-2 0 -5 1l-145 41q-8 2 -11.5 9t-1.5 14.5t9 11.5t14 2l84 -24q-89 119 -89 268q0 90 34 172t97.5 145t145 97t171.5 34q98 0 187 -41q7 -3 10 -10.5t0 -14.5q-4 -7 -11 -10t-15 0q-81 38 -171 38q-82 0 -157 -31t-133 -89t-89 -132.5t-31 -157.5q0 -82 31 -157
t89 -133q11 -10 3 -23q-5 -10 -16 -10zM208 61h-1q-8 0 -13.5 6t-4.5 14l6 147q0 8 6 13.5t14 4.5q8 0 13.5 -6t5.5 -14l-7 -147q0 -8 -5.5 -13t-13.5 -5zM512 -64q-99 0 -187 41q-7 3 -10 10.5t0.5 15t11 10t14.5 -0.5q81 -37 171 -37q82 0 157 31t133 89q58 57 89 132
t31 157t-31 157t-89 133q-11 11 -3 24t23 8l144 -51q8 -3 11.5 -10t1 -14.5t-10 -11t-14.5 -0.5l-78 27q84 -117 84 -262q0 -90 -34 -172t-97.5 -145t-145 -97t-171.5 -34zM810 522h-1q-8 0 -13.5 6t-5.5 14l7 147q0 8 6 13.5t14 4.5q8 0 13.5 -6t4.5 -14l-6 -147
q0 -8 -6 -13t-13 -5zM512 154q-95 0 -162.5 67.5t-67.5 162.5t67.5 162.5t162.5 67.5t162.5 -67.5t67.5 -162.5t-67.5 -162.5t-162.5 -67.5zM512 576q-79 0 -135.5 -56.5t-56.5 -135.5t56.5 -135.5t135.5 -56.5t135.5 56.5t56.5 135.5t-56.5 135.5t-135.5 56.5zM263.5 346.5
q15.5 -15.5 37.5 -15.5t37.5 15.5t15.5 37.5t-15.5 37.5t-37.5 15.5t-37.5 -15.5t-15.5 -37.5t15.5 -37.5zM301 312q-30 0 -51 21t-21 51t21 51t51 21t51 -21t21 -51t-21 -51t-51 -21zM301 418q-14 0 -24 -10t-10 -24t10 -24t24 -10t23 10q10 10 10 24t-10 24q-9 10 -23 10z
M685.5 346.5q15.5 -15.5 37.5 -15.5t37.5 15.5t15.5 37.5t-15.5 37.5t-37.5 15.5t-37.5 -15.5t-15.5 -37.5t15.5 -37.5zM723 312q-30 0 -51 21t-21 51t21 51t51 21t51 -21t21 -51t-21 -51t-51 -21zM699.5 408q-9.5 -10 -9.5 -24t9.5 -23.5t23.5 -9.5t24 9.5t10 23.5t-10 24
t-24 10t-23.5 -10zM471.5 135.5q15.5 -15.5 37.5 -15.5t37.5 15.5t15.5 37.5t-15.5 37.5t-37.5 15.5t-37.5 -15.5t-15.5 -37.5t15.5 -37.5zM509 101q-30 0 -51 21t-21 51t21 51t51 21t51 -21t21 -51t-21 -51t-51 -21zM509 206q-14 0 -24 -10q-10 -9 -10 -23t10 -24t24 -10
t23 10q10 10 10 24t-10 23q-9 10 -23 10zM471 210zM474.5 557.5q15.5 -15.5 37.5 -15.5t37.5 15.5t15.5 37.5t-15.5 37.5t-37.5 15.5t-37.5 -15.5t-15.5 -37.5t15.5 -37.5zM512 523q-30 0 -51 21t-21 51t21 51t51 21t51 -21t21 -51t-21 -51t-51 -21zM512 629q-14 0 -24 -10
t-10 -24t10 -23q10 -10 24 -10t24 10q10 9 10 23t-10 24t-24 10z" />
    <glyph glyph-name="iconfont-setting" unicode="&#xe667;" 
d="M613 -48q-8 0 -14 6q-14 15 -39 25t-48 10q-50 0 -89 -36q-7 -7 -17 -5l-8 2q-1 0 -1 1l-3 1q-19 5 -27 8h-0.5h-1.5q-96 33 -169 105l-7 7q-9 8 -6 20q7 19 3 45.5t-15 46.5q-25 43 -76 58q-10 3 -13 13l-2 6q-5 17 -8 33v1q-8 42 -8 85q0 41 8 84q0 1 1 2q3 16 6 28
l3 10q2 11 14 14q20 4 41.5 20.5t33.5 37.5q24 42 12 93q-3 11 6 19l6 5l6 6q5 5 15 14h1l1 1q66 57 148 86h1.5h0.5q20 7 31 9l5 2q12 4 20 -5q14 -15 39 -25t49 -10q49 0 88 36q8 7 19 4l5 -1q1 0 1.5 -0.5l0.5 -0.5q13 -3 30 -9h1.5h0.5q82 -29 147 -85h1l0.5 -0.5
l1.5 -1.5l12 -11l15 -14q9 -8 6 -20q-7 -19 -3 -45.5t15 -46.5q25 -43 76 -58q10 -3 13 -13l2 -7v-0.5v-0.5l7 -30q1 -3 1 -4q8 -45 7 -83q0 -60 -16 -118l-1 -5q-3 -12 -15 -15q-20 -4 -41.5 -20.5t-33.5 -37.5q-24 -42 -12 -93q3 -10 -5 -18l-6 -6q-86 -85 -203 -116
l-7 -2q-2 -1 -6 -1zM381 0q13 -4 24 -8v0q47 40 107 40q28 0 57 -11t50 -28q105 28 182 104q-11 60 19 111q14 24 38 43.5t49 28.5q14 52 14 104v1q1 36 -7 78q-1 1 -1 3l-5 23q-58 20 -88 72q-31 52 -19 111l-20 17q0 1 -1 1q-60 52 -136 78h-0.5h-1.5q-12 5 -24 8
q-47 -39 -106 -39q-29 0 -58 10.5t-49 28.5q-15 -4 -26 -8l-1 -0.5l-1 -0.5q-74 -25 -134 -77l-1 -1q-10 -9 -14 -13v0l-5 -5q10 -61 -19 -111q-14 -24 -38 -43.5t-50 -28.5q-4 -15 -6 -25v-3q-8 -39 -8 -76q0 -39 8 -79v-0.5v-1.5q2 -11 6 -24q58 -21 88 -72
q31 -52 19 -111q68 -66 157 -96h1v0zM924 265zM638 795zM638 795zM620 814zM620 814zM512 141q-101 0 -172 71t-71 172t71 172t172 71t172 -71t71 -172t-71 -172t-172 -71zM512 589q-85 0 -145 -60t-60 -145t60 -145t145 -60t145 60t60 145t-60 145t-145 60zM474.5 570.5
q15.5 -15.5 37.5 -15.5t37.5 15.5t15.5 37.5t-15.5 37.5t-37.5 15.5t-37.5 -15.5t-15.5 -37.5t15.5 -37.5zM512 536q-30 0 -51 21q-21 22 -21 51q0 30 21 51t51 21t51 -21t21 -51t-21 -51t-51 -21zM512 642q-14 0 -24 -10t-10 -24t10 -24t24 -10t24 10t10 24t-10 24t-24 10z
M475 645zM301.5 202.5q15.5 -15.5 37.5 -15.5t37.5 15.5t15.5 37.5t-15.5 37.5t-37.5 15.5t-37.5 -15.5t-15.5 -37.5t15.5 -37.5zM339 168q-30 0 -51 21t-21 51t21 51t51 21t51 -21t21 -51t-21 -51t-51 -21zM339 274q-14 0 -23.5 -10t-9.5 -24t9.5 -24t23.5 -10t24 10t10 24
t-10 24t-24 10zM302 277zM647.5 202.5q15.5 -15.5 37.5 -15.5t37.5 15.5t15.5 37.5t-15.5 37.5t-37.5 15.5t-37.5 -15.5t-15.5 -37.5t15.5 -37.5zM685 168q-30 0 -51 21t-21 51t21 51t51 21t51 -21t21 -51t-21 -51t-51 -21zM685 274q-14 0 -24 -10t-10 -24t10 -24t24 -10
t23 10q10 10 10 24t-10 24q-9 10 -23 10zM647 277z" />
    <glyph glyph-name="iconfont-qq" unicode="&#xe668;" 
d="M139 491q-3 -10 -2 -13.5t2 -21.5t0 -40q0 -6 -17 -28t-39 -55.5t-33 -62.5q-20 -49 -18.5 -96.5t28.5 -66.5q25 -18 61 48q16 25 18 25q3 -11 7 -23q21 -54 63 -101q2 -3 -7.5 -9t-27 -20.5t-28.5 -32.5q-7 -13 -7.5 -29t8 -32t24.5 -29.5t45 -22t66 -8.5q46 0 83.5 6
t59 14.5t35.5 16.5t20.5 14l6.5 6h26q6 0 12.5 -0.5t11.5 0.5q2 0 13 -7t29 -16.5t41 -18t54 -13.5t62 -2q38 4 66.5 11t46 14t27.5 17.5t13.5 18.5t2.5 20t-3 18.5t-6 18.5q-1 2 -2 3q-3 8 -8.5 16t-11.5 13.5t-13 11t-13.5 9t-11.5 6.5l-7.5 4.5t-1.5 1.5q8 9 15 18
t12 15.5t10 16t7.5 13.5t7 15.5t5.5 14t5.5 16t4.5 15.5q3 7 17 -15q32 -53 47 -60q12 -6 21 2q9 7 16 24t10 53t-12 86q-10 35 -25 63t-27.5 41.5t-21 24.5t-8.5 17q4 59 -1 75q-4 16 -12 23t-13.5 8.5t-5.5 4.5q0 100 -47 185t-127.5 134.5t-175.5 49.5t-176 -49.5
t-127.5 -134.5t-46.5 -185q0 -7 -4 -9t-11 -7.5t-12 -19.5z" />
    <glyph glyph-name="iconfont-logo" unicode="&#xe669;" 
d="M721 732q29 -17 63 -35l51 -27t36 -20t27.5 -19t16 -18t10.5 -23q-198 78 -412 78q-216 0 -414 -78q3 12 10.5 22.5t16 18.5t27.5 19t36 20t51.5 27t62.5 34q30 17 65 37t49.5 29.5t38 19.5t30 13t26.5 3t26.5 -3t30 -13t37.5 -19.5t49.5 -29.5t65.5 -36zM929 576
q-115 24 -231 24q-227 0 -432 -85q-89 -36 -171 -87q0 -61 -1 -123q126 104 279 166q198 81 416 81q70 0 142 -9q0 19 -2 33zM931 533q0 -16 -1 -64t-1 -83q0 -37 2 -94q0 -32 0.5 -46t-1.5 -35.5t-3 -28t-10 -21t-14.5 -18.5t-23.5 -16.5t-30.5 -19t-42.5 -22.5
q-52 -27 -85 -45q-30 -17 -65 -37t-49.5 -29.5t-38 -19.5t-30 -13t-26.5 -3t-26.5 3t-30 13t-37.5 19.5t-49.5 29.5t-65.5 37q-33 18 -84 45q-30 16 -42.5 22.5t-31 19t-24 16.5t-14 18.5t-9.5 21t-3.5 27.5t-2 35t0.5 46q84 35 155 53.5t169 24.5q-51 -59 -105 -132
t-86 -131h551q31 0 31 28l4 261q-71 -43 -142 -111v-37q0 -11 -6.5 -18t-18.5 -7h-164q83 110 198.5 190t251.5 121z" />
    <glyph glyph-name="iconfont-map1" unicode="&#xe66a;" 
d="M511 -62h-1q-14 0 -25 9q-9 7 -23 18.5t-48.5 44t-65.5 66.5t-67.5 84t-63 98.5t-44 108t-16.5 114.5q3 147 104 249q50 50 114.5 77t134.5 27v0q146 0 249 -104q103 -103 105 -249q1 -55 -16.5 -114.5t-44 -108.5t-63 -98t-68 -84t-65 -66.5t-48.5 -44t-23 -18.5
q-11 -9 -25 -9zM510.5 750q-111.5 0 -190.5 -79q-78 -78 -80 -191q-1 -54 20.5 -113.5t52 -107t71.5 -96.5t69.5 -77t56.5 -52q29 24 57.5 52.5t69.5 77t71.5 96t52 107t20.5 113.5q-2 113 -81 191q-78 79 -189.5 79zM512 296q-73 0 -125 52t-52 125.5t52 125.5t125 52
t125 -52t52 -125.5t-52 -125.5t-125 -52zM512 568q-39 0 -66.5 -28t-27.5 -66.5t27.5 -66t66.5 -27.5t66.5 27.5t27.5 66t-27.5 66.5t-66.5 28z" />
    <glyph glyph-name="iconfont-wallet" unicode="&#xe66b;" 
d="M902 38h-787q-23 0 -39 16t-16 38v584q0 22 16 38t39 16h787q22 0 38 -16t16 -38v-584q0 -22 -16 -38t-38 -16zM143 122h730v524h-730v-524zM903 443h-790q-17 0 -29.5 12.5t-12.5 29.5t12.5 29t29.5 12h790q17 0 29.5 -12t12.5 -29t-12.5 -29.5t-29.5 -12.5zM764 202
h-96q-17 0 -29 12t-12 29t12 29.5t29 12.5h96q17 0 29.5 -12.5t12.5 -29.5t-12.5 -29t-29.5 -12z" />
    <glyph glyph-name="iconfont-logo1" unicode="&#xe66c;" 
d="M721 732q29 -17 63 -35l51 -27t36 -20t27.5 -19t16 -18t10.5 -23q-198 78 -412 78q-216 0 -414 -78q3 12 10.5 22.5t16 18.5t27.5 19t36 20t51.5 27t62.5 34q30 17 65 37t49.5 29.5t38 19.5t30 13t26.5 3t26.5 -3t30 -13t37.5 -19.5t49.5 -29.5t65.5 -36zM929 576
q-115 24 -231 24q-227 0 -432 -85q-89 -36 -171 -87q0 -61 -1 -123q126 104 279 166q198 81 416 81q70 0 142 -9q0 19 -2 33zM931 533q0 -16 -1 -64t-1 -83q0 -37 2 -94q0 -32 0.5 -46t-1.5 -35.5t-3 -28t-10 -21t-14.5 -18.5t-23.5 -16.5t-30.5 -19t-42.5 -22.5
q-52 -27 -85 -45q-30 -17 -65 -37t-49.5 -29.5t-38 -19.5t-30 -13t-26.5 -3t-26.5 3t-30 13t-37.5 19.5t-49.5 29.5t-65.5 37q-33 18 -84 45q-30 16 -42.5 22.5t-31 19t-24 16.5t-14 18.5t-9.5 21t-3.5 27.5t-2 35t0.5 46q84 35 155 53.5t169 24.5q-51 -59 -105 -132
t-86 -131h551q31 0 31 28l4 261q-71 -43 -142 -111v-37q0 -11 -6.5 -18t-18.5 -7h-164q83 110 198.5 190t251.5 121z" />
  </font>
</defs>
</svg>
